<svg id="Layer_1" data-name="Layer 1" xmlns="http://www.w3.org/2000/svg" viewBox="0 0 612 792"><path d="M385.9,119.17H357.35V108.71a15.88,15.88,0,0,0-15.88-15.88H259a15.88,15.88,0,0,0-15.88,15.88v10.46H214.6a57.27,57.27,0,0,0-57.1,57.1V633.08a57.26,57.26,0,0,0,57.1,57.09H385.9A57.27,57.27,0,0,0,443,633.08V176.27A57.27,57.27,0,0,0,385.9,119.17ZM410,633.08a24.26,24.26,0,0,1-24.1,24.09H214.6a24.26,24.26,0,0,1-24.1-24.09V176.27a24.28,24.28,0,0,1,24.1-24.1H385.9a24.28,24.28,0,0,1,24.1,24.1ZM385,377.22c2.38,5-.73,8.57-3.77,11.83q-29,31.05-58.2,62l-64.53,68.61h-8.35c-5.76-4-4.87-9.27-3.12-14.9,7.91-25.47,15.54-51,23.72-76.39,2.21-6.85.82-8.83-6.31-8.59-12.49.42-25,.09-37.51.12-4.59,0-9.09-.23-11.39-5.09-2.38-5,.74-8.58,3.78-11.83q29.31-31.35,58.78-62.57l63.94-68h8.35c5.76,4,4.87,9.28,3.12,14.9-7.91,25.47-15.54,51-23.72,76.4-2.22,6.85-.81,8.82,6.31,8.58,12.5-.42,25-.08,37.52-.12C378.19,372.12,382.68,372.35,385,377.22Z"/></svg>