<svg id="Layer_1" data-name="Layer 1" xmlns="http://www.w3.org/2000/svg" viewBox="0 0 612 792"><defs><style>.cls-1{fill:#010101;}</style></defs><path class="cls-1" d="M385.9,119.17H357.35V108.71a15.88,15.88,0,0,0-15.88-15.88H259a15.88,15.88,0,0,0-15.88,15.88v10.46H214.6a57.27,57.27,0,0,0-57.1,57.1V633.08a57.26,57.26,0,0,0,57.1,57.09H385.9A57.26,57.26,0,0,0,443,633.08V176.27A57.27,57.27,0,0,0,385.9,119.17ZM410,633.08a24.26,24.26,0,0,1-24.1,24.09H214.6a24.26,24.26,0,0,1-24.1-24.09V176.27a24.28,24.28,0,0,1,24.1-24.1H385.9a24.28,24.28,0,0,1,24.1,24.1ZM392.75,193.16v98.71c0,11.17-8.62,20.23-19.25,20.23H227c-10.63,0-19.25-9.06-19.25-20.23V193.16c0-11.18,8.62-20.24,19.25-20.24H373.5C384.13,172.92,392.75,182,392.75,193.16Zm0,161.36v98.71c0,11.17-8.62,20.23-19.25,20.23H227c-10.63,0-19.25-9.06-19.25-20.23V354.52c0-11.18,8.62-20.23,19.25-20.23H373.5C384.13,334.29,392.75,343.34,392.75,354.52Zm0,163.46v98.71c0,11.18-8.62,20.23-19.25,20.23H227c-10.63,0-19.25-9-19.25-20.23V518c0-11.17,8.62-20.23,19.25-20.23H373.5C384.13,497.75,392.75,506.81,392.75,518Z"/></svg>